<svg viewBox="0 0 96 96" xmlns="http://www.w3.org/2000/svg" xmlns:xlink="http://www.w3.org/1999/xlink" id="Icons_ConstructionWorker" overflow="hidden"><path d="M32.05 29C32.05 29.33 32.05 29.66 32.05 30 32.05 38.8366 39.2134 46 48.05 46 56.8866 46 64.05 38.8366 64.05 30 64.05 29.66 64.05 29.33 64.05 29Z" fill="#636EA6"/><path d="M65 22 64 22C63.6518 16.4777 60.4751 11.5273 55.6 8.91L54 15.24C53.8872 15.6972 53.4707 16.0137 53 16L52.76 16C52.2195 15.8866 51.8732 15.3566 51.9865 14.816 51.9905 14.7972 51.995 14.7785 52 14.76L53.9 7.27C53.5662 5.93921 52.372 5.0045 51 5L45 5C43.628 5.0045 42.4339 5.93921 42.1 7.27L44 14.76C44.1443 15.2931 43.8291 15.8422 43.296 15.9866 43.2775 15.9916 43.2588 15.9961 43.24 16L43 16C42.5293 16.0137 42.1128 15.6972 42 15.24L40.45 8.91C35.5749 11.5273 32.3982 16.4777 32.05 22L31 22C29.8954 22 29 22.8954 29 24 29 25.1046 29.8954 26 31 26L65 26C66.1046 26 67 25.1046 67 24 67 22.8954 66.1046 22 65 22Z" fill="#636EA6"/><path d="M26 78 46 78 46 82 50 82 50 78 70 78 70 82 84 82 80 66C79.59 63.63 78.8 61.2 76.8 59.6 73.4515 56.9599 69.6912 54.8888 65.67 53.47L69.67 74 50 74 50 67 56.76 50.89C53.8773 50.3002 50.9425 50.002 48 50 45.0629 50.0259 42.1354 50.3407 39.26 50.94L46 67 46 74 26.38 74 30.32 53.54C26.378 55.0946 22.6431 57.13 19.2 59.6 17.3493 61.2419 16.2031 63.5343 16 66L12 82 26 82Z" fill="#636EA6"/></svg>