<svg viewBox="0 0 96 96" xmlns="http://www.w3.org/2000/svg" xmlns:xlink="http://www.w3.org/1999/xlink" id="Icons_Labor" overflow="hidden"><rect x="74.552" y="41.377" width="7.282" height="3" fill="#70AD47" transform="matrix(0.606183 -0.795325 0.795325 0.606183 -3.307 79.074)"/><rect x="78.684" y="48.617" width="7.209" height="3" fill="#70AD47" transform="matrix(0.991007 -0.133813 0.133813 0.991007 -5.966 11.461)"/><rect x="57.399" y="47.403" width="2.999" height="7.21" fill="#70AD47" transform="matrix(0.192214 -0.981353 0.981353 0.192214 -2.479 99.003)"/><path d="M50.882 72.467 57.129 74.217 61.45 83.202 64.562 88 92.986 88 86.829 65.995 78.02 58 75.43 59.846 75.458 59.843 75.009 70.629 74.57 70.629 72.329 61.128 65.036 58 54.216 68.614 48.567 70.196 50.882 72.467Z" fill="#70AD47"/><path d="M29.285 73.681 42.228 68.18 49.331 75.148 55.014 76.74 58.829 84.674 60.986 88 20.986 88 29.285 73.681Z" fill="#70AD47"/><path d="M60.4 29.473C60.6945 28.5763 60.7291 27.6146 60.5 26.699L62.816 24.281C63.4645 23.6048 63.453 22.5341 62.79 21.872L60.3 19.384C59.6374 18.7214 58.5668 18.7099 57.89 19.358L55.502 21.646C54.5334 21.3848 53.5085 21.4214 52.561 21.751 43.006 13.789 31.144 8.342 22.188 8.074 21.8065 8.04821 21.4647 8.30841 21.388 8.683 21.2992 9.05187 21.4817 9.43238 21.825 9.594 29.48 13.223 37.02 18.747 46.397 27.667 45.958 28.6212 45.8307 29.6894 46.033 30.72L2.531 72.389C1.84275 73.0469 1.81816 74.1382 2.4761 74.8265 2.48398 74.8347 2.49195 74.8429 2.5 74.851L7.323 79.67C7.9954 80.3426 9.08571 80.3427 9.75828 79.6703 9.76728 79.6613 9.77619 79.6522 9.785 79.643L51.491 36.1C52.5036 36.2803 53.5472 36.1434 54.479 35.708 61.379 42.859 68.437 51.07 73.018 59.948 73.1526 60.215 73.426 60.3836 73.725 60.384 73.7977 60.3838 73.87 60.3737 73.94 60.354 74.3051 60.2555 74.5494 59.9123 74.523 59.535 73.971 50.463 68.443 38.87 60.4 29.473Z" fill="#70AD47"/></svg>