<svg viewBox="0 0 96 96" xmlns="http://www.w3.org/2000/svg" xmlns:xlink="http://www.w3.org/1999/xlink" id="Icons_JackHammer" overflow="hidden"><path d="M56 14 40 14C38.9 14 38 13.1 38 12 38 10.9 38.9 10 40 10L56 10C57.1 10 58 10.9 58 12 58 13.1 57.1 14 56 14ZM58 20C58 21.1 57.1 22 56 22L40 22C38.9 22 38 21.1 38 20 38 18.9 38.9 18 40 18L56 18C57.1 18 58 18.9 58 20ZM58 28C58 29.1 57.1 30 56 30L40 30C38.9 30 38 29.1 38 28 38 26.9 38.9 26 40 26L56 26C57.1 26 58 26.9 58 28ZM79 13 66 13 66 11.8C66 11.3 65.8 10.8 65.4 10.4L62 7C62 5.3 60.7 4 59 4L37 4C35.3 4 34 5.3 34 7L30.6 10.4C30.2 10.8 30 11.3 30 11.8L30 13 17 13C15.3 13 14 14.3 14 16 14 17.7 15.3 19 17 19L30 19 30 20.2C30 20.7 30.2 21.2 30.6 21.6L34 25 34 34C34 35.1 34.9 36 36 36L60 36C61.1 36 62 35.1 62 34L62 25 65.4 21.6C65.8 21.2 66 20.7 66 20.2L66 19 79 19C80.7 19 82 17.7 82 16 82 14.3 80.7 13 79 13Z" fill="#636EA6"/><path d="M36 44 40 48 40 68 38 70 38 74 44 74 44 78 46 78 46 88 48 92 50 88 50 78 52 78 52 74 58 74 58 70 56 68 56 48 60 44 60 40 36 40Z" fill="#636EA6"/></svg>